<svg width="30" height="30" viewBox="0 0 30 30" fill="none" xmlns="http://www.w3.org/2000/svg">
<path d="M5.93444 18.6872C6.26337 18.5792 6.53999 18.4769 6.8235 18.3974C7.61072 18.1787 8.34976 17.842 9.06817 17.4543C9.41085 17.2696 9.73014 17.0367 10.0563 16.8193C10.304 16.6546 10.5518 16.4884 10.7912 16.3094C10.988 16.1631 11.1766 16.004 11.3569 15.8364C11.4064 15.7896 11.4298 15.6944 11.4367 15.6177C11.4491 15.4828 11.4518 15.3436 11.4381 15.2086C11.3885 14.7229 11.5028 14.2882 11.7367 13.8621C12.0065 13.3721 12.2308 12.8565 12.4785 12.3536C12.5735 12.1619 12.7345 12.0909 12.8983 12.1633C13.1281 12.2627 13.2024 12.419 13.1212 12.6505C12.9575 13.115 12.7868 13.578 12.6189 14.0425C12.5996 14.0979 12.5831 14.1547 12.5556 14.2484C12.6216 14.2158 12.6602 14.2073 12.6822 14.1817C12.8047 14.0425 12.9451 14.0425 13.0978 14.1121C13.2575 14.1845 13.3882 14.2825 13.3593 14.4942C13.296 14.9615 13.2258 15.4274 13.1708 15.8961C13.1432 16.1276 13.135 16.3591 12.9575 16.5338C12.8818 16.6077 12.8074 16.683 12.7262 16.7512C12.3368 17.085 11.9473 17.4173 11.5564 17.7469C11.3541 17.9173 11.1601 18.1076 10.9357 18.244C10.3288 18.6105 9.71638 18.9698 9.09019 19.2993C8.68695 19.511 8.26581 19.6928 7.83642 19.8377C7.46621 19.9627 7.07536 20.0351 6.68863 20.0976C6.37897 20.1487 6.06243 20.1615 5.74865 20.1715C5.34954 20.1828 5.01098 20.0479 4.72747 19.7354C4.48525 19.4684 4.39579 19.1502 4.36689 18.8107C4.32148 18.2767 4.41506 17.7582 4.55957 17.244C4.71646 16.6858 4.82931 16.1148 4.99584 15.5609C5.26421 14.6703 5.589 13.7996 6.04041 12.9886C6.47944 12.2002 6.93773 11.4219 7.42355 10.6648C7.63687 10.3324 7.96028 10.0881 8.30572 9.89354C9.09294 9.45179 9.87465 8.99727 10.6701 8.57115C11.0114 8.38792 11.383 8.26151 11.7684 8.09674C11.6968 8.02999 11.639 7.98169 11.5881 7.92772C11.0734 7.37377 10.5573 6.81839 10.216 6.12809C10.0935 5.87952 10.0508 5.58692 9.97236 5.31562C9.8196 4.77872 9.78657 4.22477 9.84162 3.67792C9.87603 3.34412 9.99025 2.20071 10.8422 1.24763C10.8422 1.24763 11.4945 0.516131 12.4716 0.148251C12.4813 0.14541 12.4909 0.141149 12.4909 0.141149C12.4909 0.141149 12.5239 0.129786 12.557 0.118423C12.7606 0.0530851 12.9987 0.0289383 12.9987 0.0289383C13.446 -0.0150937 13.874 -0.0292975 14.364 0.138308C14.4521 0.151092 14.5773 0.175239 14.7218 0.227793C14.909 0.295972 15.0535 0.385456 15.231 0.514711C15.4402 0.668113 15.6948 0.854184 15.9742 1.16525C16.5563 1.81295 16.8054 2.5061 16.8688 2.72057C17.0339 3.28447 17.1481 3.86541 17.0697 4.44777C16.95 5.33835 16.7518 6.21615 16.1545 6.92208C15.8737 7.25445 15.5737 7.5712 15.2833 7.89505C15.2351 7.9476 15.1897 8.003 15.1085 8.09532C15.3122 8.18481 15.487 8.25583 15.6549 8.33821C16.2783 8.64501 16.9059 8.94187 17.5197 9.26856C17.9464 9.49441 18.3565 9.75434 18.7652 10.0128C19.0983 10.2245 19.3749 10.5029 19.5882 10.8466C19.836 11.2443 20.1029 11.6321 20.3342 12.0383C20.5709 12.4545 20.7883 12.8849 20.9934 13.3195C21.2108 13.7811 21.4393 14.2428 21.6003 14.7271C21.8728 15.5453 22.1081 16.3762 22.3352 17.2085C22.4701 17.7028 22.5829 18.2099 22.5472 18.7298C22.521 19.109 22.3889 19.4542 22.1522 19.751C21.9196 20.0422 21.5852 20.136 21.2549 20.1629C20.2984 20.2382 19.3845 20.0181 18.512 19.6246C17.9574 19.3746 17.4055 19.1147 16.877 18.8136C16.4077 18.5465 15.9549 18.2383 15.5242 17.9074C15.0686 17.5565 14.6475 17.156 14.2112 16.7767C14.108 16.6858 13.9965 16.602 13.9043 16.5012C13.7075 16.2881 13.7543 15.9941 13.6896 15.737C13.6057 15.3975 13.5644 15.0467 13.4887 14.7058C13.435 14.4629 13.53 14.3024 13.6979 14.1547C13.8355 14.0325 13.9731 14.0524 14.1218 14.122C14.1686 14.1448 14.2195 14.1561 14.3076 14.1859C14.291 14.1078 14.2883 14.0595 14.2718 14.0155C14.1094 13.578 13.9428 13.142 13.7832 12.7045C13.7006 12.4758 13.7626 12.294 13.9428 12.1931C14.1176 12.0951 14.28 12.1278 14.4039 12.348C14.609 12.713 14.7865 13.0937 14.9682 13.4729C15.0769 13.6988 15.1567 13.9388 15.2737 14.1575C15.3714 14.3393 15.4099 14.5212 15.4017 14.7243C15.3934 14.9359 15.4182 15.1504 15.3948 15.3592C15.3659 15.6234 15.4691 15.8052 15.6618 15.9529C15.9246 16.156 16.1806 16.3691 16.4518 16.5594C16.7889 16.7938 17.1357 17.0154 17.4853 17.2313C18.201 17.6716 18.9538 18.0281 19.7465 18.298C20.1016 18.4187 20.458 18.538 20.8131 18.663C20.9521 18.7113 20.9879 18.6431 20.9659 18.5224C20.9053 18.1772 20.8558 17.8292 20.7677 17.4912C20.6562 17.0594 20.5241 16.6333 20.3782 16.2128C20.1621 15.5936 19.9502 14.9714 19.6901 14.372C19.4534 13.8266 19.1712 13.2996 18.8781 12.784C18.6427 12.3707 18.4597 11.9119 18.0867 11.5994C17.828 11.3821 17.561 11.1662 17.2692 11.0014C16.8302 10.7543 16.3719 10.5412 15.9136 10.3339C15.1195 9.9745 14.3186 9.62792 13.5176 9.28419C13.4557 9.2572 13.3607 9.27282 13.2946 9.30123C12.5446 9.6336 11.7931 9.96313 11.05 10.3125C10.5105 10.5654 9.77556 10.7557 9.22919 11.2131C9.2113 11.2287 9.19203 11.2443 9.19203 11.2443C8.80255 11.5781 8.52592 11.9304 8.28646 12.2883C7.85844 12.9317 7.56255 13.5894 7.39602 13.9445C7.13591 14.4984 6.93498 15.0836 6.71478 15.6575C6.58403 15.9984 6.44778 16.3378 6.34457 16.6887C6.20556 17.1602 6.02115 17.6219 6.00876 18.1261C6.00738 18.1914 5.97435 18.2568 5.96747 18.3235C5.94683 18.4315 5.94408 18.5409 5.93444 18.6872ZM15.4361 4.13244C15.4361 3.52309 15.3177 3.01317 15.114 2.67512C14.7411 2.05725 13.9098 1.52035 13.0565 1.7192C12.4661 1.85698 12.0574 2.23054 11.7477 2.72341C11.606 2.94926 11.5482 3.23617 11.4821 3.50321C11.4326 3.70348 11.4023 3.91938 11.4133 4.12392C11.4271 4.36396 11.4945 4.60117 11.5385 4.83979C11.6486 5.43068 11.9253 5.93491 12.323 6.36103C12.5391 6.59255 12.8019 6.78288 13.062 6.96185C13.2506 7.09111 13.468 7.21468 13.702 7.03713C13.9084 6.88089 14.1231 6.73459 14.3172 6.56272C14.686 6.23746 14.9723 5.85253 15.1608 5.37954C15.3301 4.96053 15.4719 4.54577 15.4361 4.13244Z" fill="black"/>
<path d="M0.00412858 25.6329C0.00412858 25.6329 0.104595 24.5932 0.305528 24.062C0.488569 23.5762 1.12164 22.7538 1.12164 22.7538C1.54553 22.2581 1.93226 21.9754 2.16484 21.8263C2.35064 21.707 2.52542 21.6175 2.56533 21.5962C2.65066 21.5521 2.92453 21.4158 3.31952 21.2908C3.57137 21.2112 3.93883 21.0962 4.4329 21.0607C4.68889 21.0422 4.87468 21.0536 5.14167 21.0692C5.28205 21.0777 5.61373 21.1019 6.22891 21.2027C6.60325 21.2638 6.97622 21.3362 7.34505 21.4257C8.11437 21.6104 8.85204 21.876 9.52641 22.3206C10.0411 22.66 10.5779 22.9626 11.1022 23.2864C11.4243 23.4839 11.7435 23.6856 12.0546 23.9C12.089 23.9242 12.0917 24.0733 12.0546 24.1159C11.9748 24.2111 11.8633 24.2793 11.7601 24.3517C11.4848 24.5477 11.2027 24.7324 10.9316 24.9341C10.571 25.2025 10.5311 25.1585 10.1526 24.9185C9.35575 24.4142 8.57267 23.8844 7.67535 23.5804C7.00649 23.3532 6.45186 23.133 5.95366 23.0393C5.2036 22.8987 4.77559 22.9384 4.64347 22.9526C4.40951 22.9782 3.97048 23.0492 3.47228 23.2807C3.20804 23.4029 2.91765 23.5691 2.58598 23.8659C2.37954 24.0506 2.21714 24.3091 2.09052 24.5634C1.90198 24.944 1.76711 25.3517 1.81665 25.7948C1.87721 26.3317 2.02584 26.8133 2.33687 27.2067C2.40981 27.299 2.57221 27.4851 2.82682 27.6598C2.9204 27.7237 3.23006 27.9254 4.10123 28.0845C4.39437 28.1385 4.76733 28.2067 5.23113 28.2123C6.3046 28.2265 7.17027 27.9666 7.80059 27.6271C8.55202 27.2223 9.30621 26.8232 10.0425 26.3914C10.538 26.1002 11.0045 25.7579 11.4834 25.4369C11.8633 25.1826 12.2473 24.9341 12.6188 24.6699C12.9313 24.4469 13.2285 24.2026 13.5368 23.9725C13.8657 23.7282 14.2015 23.491 14.5305 23.2481C14.7809 23.0634 15.0287 22.8759 15.275 22.6856C15.637 22.4072 15.9962 22.1246 16.3567 21.8447C16.6595 21.6089 16.9664 21.376 17.2651 21.1345C17.6215 20.8476 17.9725 20.555 18.3248 20.2624C18.4115 20.19 18.4775 20.1999 18.5408 20.2908C18.9317 20.8576 19.3226 21.4257 19.7148 21.991C20.0121 22.42 20.3093 22.8475 20.6149 23.2694C20.6383 23.3021 20.7387 23.3163 20.7731 23.2921C20.9686 23.1558 21.1626 23.0151 21.3401 22.8561C21.6388 22.589 21.9168 22.2993 22.2168 22.0351C22.4962 21.7893 22.7935 21.5663 23.0825 21.3334C23.1183 21.3036 23.154 21.2737 23.1898 21.2425C23.6825 20.805 24.1766 20.369 24.6679 19.9286C25.0505 19.5863 25.429 19.2397 25.8102 18.8974C25.9533 18.7682 26.1033 18.6474 26.2479 18.5182C26.3648 18.4145 26.3703 18.3094 26.2589 18.1872C26.0703 17.9799 25.8887 17.7654 25.7125 17.5466C25.6753 17.5012 25.6519 17.4216 25.6616 17.3663C25.6671 17.335 25.7538 17.3094 25.8061 17.2981C26.1322 17.2327 26.4598 17.1717 26.786 17.1092C27.0819 17.0523 27.3764 16.9955 27.6709 16.9345C27.9585 16.8748 28.2434 16.8052 28.5311 16.747C28.7347 16.7058 28.7939 16.7044 29.1105 16.6461C29.2151 16.6262 29.321 16.612 29.4256 16.5921C29.4628 16.585 29.482 16.5808 29.5784 16.5609C29.9321 16.487 29.9651 16.4799 29.9857 16.5027C30.038 16.5595 29.9362 16.7299 29.8454 16.9046C29.7119 17.1617 29.6265 17.4444 29.5096 17.71C29.3816 18.0012 29.3196 18.325 29.116 18.9443C28.9632 19.413 28.8035 19.8789 28.6467 20.3448C28.6384 20.3704 28.6233 20.3931 28.6123 20.4187C28.4595 20.761 28.4526 20.7638 28.2159 20.4982C28.0466 20.3079 27.8911 20.1048 27.7094 19.9301C27.6654 19.8889 27.5126 19.9059 27.4548 19.9528C27.1218 20.2283 26.8066 20.5238 26.4791 20.805C26.1116 21.1218 25.7373 21.4286 25.3671 21.741C25.2143 21.8703 25.0601 21.9967 24.9129 22.1317C24.4986 22.5081 24.094 22.8958 23.6729 23.2651C23.1692 23.7069 22.6503 24.1316 22.1411 24.569C21.9237 24.7551 21.7186 24.9568 21.5039 25.1471C21.1805 25.4341 20.8571 25.721 20.5282 26.0008C20.3754 26.13 20.2859 25.9923 20.2061 25.8872C20.085 25.7281 19.9763 25.559 19.8607 25.3957C19.6143 25.0463 19.3666 24.6969 19.1175 24.3475C18.8078 23.9114 18.4982 23.4768 18.1899 23.0407C18.1211 22.9441 18.0619 22.9356 17.9628 23.0123C17.5747 23.3106 17.1756 23.5961 16.7848 23.8915C16.3843 24.1955 15.9934 24.5151 15.5874 24.8119C15.2984 25.0236 14.986 25.1997 14.6942 25.4085C14.2414 25.7323 13.8024 26.0746 13.3496 26.3971C13.0909 26.5817 12.8101 26.7323 12.5473 26.9113C11.8784 27.3644 11.2206 27.8359 10.5435 28.2762C10.1953 28.5021 9.82092 28.6882 9.44658 28.8671C8.93324 29.1129 8.41853 29.3586 7.88867 29.5603C7.30514 29.7833 6.83308 29.8486 6.71197 29.8713C6.1023 29.9821 5.644 29.9878 5.04533 29.9963C4.54163 30.0034 4.25261 30.0063 3.84524 29.948C3.57137 29.9097 3.20942 29.8813 2.7814 29.6867C2.43872 29.5319 2.11254 29.3359 1.78775 29.1427C1.64187 29.056 1.50837 28.9396 1.38451 28.8203C1.21385 28.6555 0.97989 28.4609 0.743175 28.1456C0.540866 27.8658 0.324795 27.4993 0.163774 27.0434C0.116981 26.9113 0.0798223 26.7848 0.0481686 26.6627C0.0371586 26.6258 0.0275252 26.5874 0.0178914 26.5448C0.0110102 26.5093 0.00412875 26.4766 0 26.444L0.00412858 25.6329Z" fill="black"/>
<path d="M20.7691 29.9721C20.5929 29.9707 20.3562 29.9636 20.0768 29.9394C19.0515 29.8514 18.2973 29.617 18.1156 29.5488C17.561 29.3415 17.0091 29.1057 16.4917 28.8145C15.7127 28.377 14.9654 27.8813 14.203 27.4112C14.0392 27.3103 13.8782 27.2052 13.7075 27.1186C13.5809 27.0546 13.5974 27.0007 13.6951 26.9353C13.9318 26.7748 14.1713 26.62 14.4053 26.4552C14.5732 26.3373 14.7369 26.2095 14.8938 26.0774C15.0879 25.9155 15.2035 25.9126 15.4099 26.0476C15.7265 26.255 16.0458 26.4581 16.3733 26.6441C16.8412 26.9098 17.316 27.1612 17.7922 27.4112C18.34 27.6981 18.9139 27.9168 19.518 28.029C19.9873 28.1157 20.4622 28.2364 20.9328 28.2293C21.6994 28.2179 22.4302 28.0461 23.0605 27.5106C23.4596 27.1711 23.7858 26.7919 23.9881 26.3175C24.1491 25.9396 24.2413 25.5419 24.1422 25.0959C24.0597 24.728 23.9413 24.3985 23.7459 24.0874C23.7211 24.0491 23.7445 23.9397 23.7817 23.9056C24.1271 23.5932 24.4794 23.2892 24.8317 22.9838C24.9542 22.8773 25.0423 22.8574 25.1744 23.0136C25.5708 23.4809 25.7703 24.0377 25.8887 24.6244C25.9561 24.9596 25.9974 25.3161 25.9644 25.6541C25.8887 26.4311 25.6726 27.1725 25.2047 27.8074C24.9983 28.0873 24.8001 28.3841 24.551 28.6185C23.922 29.2094 23.2215 29.7037 22.3669 29.8585C21.8645 29.9494 20.8337 29.9664 20.8337 29.9664C20.8117 29.9707 20.7911 29.9707 20.7691 29.9721Z" fill="black"/>
</svg>
